<?xml version="1.0" encoding="UTF-8" standalone="no"?>
<!-- Created with Inkscape (http://www.inkscape.org/) -->

<svg
   version="1.1"
   id="svg2"
   width="412"
   height="669.33331"
   viewBox="0 0 412 669.33331"
   sodipodi:docname="tsodd.eps"
   xmlns:inkscape="http://www.inkscape.org/namespaces/inkscape"
   xmlns:sodipodi="http://sodipodi.sourceforge.net/DTD/sodipodi-0.dtd"
   xmlns="http://www.w3.org/2000/svg"
   xmlns:svg="http://www.w3.org/2000/svg">
  <defs
     id="defs6" />
  <sodipodi:namedview
     id="namedview4"
     pagecolor="#ffffff"
     bordercolor="#000000"
     borderopacity="0.25"
     inkscape:showpageshadow="2"
     inkscape:pageopacity="0.0"
     inkscape:pagecheckerboard="0"
     inkscape:deskcolor="#d1d1d1" />
  <g
     id="g8"
     inkscape:groupmode="layer"
     inkscape:label="ink_ext_XXXXXX"
     transform="matrix(1.3333333,0,0,-1.3333333,0,669.33333)">
    <g
       id="g10"
       transform="scale(0.1)">
      <path
         d="m 1365.96,1479.96 177.09,-177.16 1087.73,1087.79 c 277.72,278.09 449.47,662.05 449.47,1086.16 0,848.81 -688.02,1536.97 -1536.91,1536.97 -848.758,0 -1536.91422,-688.16 -1536.91422,-1536.97 0,-423.73 172.11722,-808.66 448.75022,-1085.36 23.562,-23.48 54.644,-37.29 89.703,-37.29 68.953,0 124.828,55.94 124.828,124.83 0,35.06 -14.957,67.08 -38.238,90.36 -231.086,231.02 -375.293,553.27 -375.293,907.46 0,709.67 577.469,1287.16 1287.164,1287.16 709.75,0 1287.16,-577.49 1287.16,-1287.16 0,-354.93 -144.42,-676.81 -377.55,-909.84 L 1365.96,1479.96"
         style="fill:#231f20;fill-opacity:1;fill-rule:nonzero;stroke:none"
         id="path12" />
      <path
         d="M 922.652,3144.48 H 720.109 l 722.331,709.24 h 202.47 L 922.652,3144.48"
         style="fill:#231f20;fill-opacity:1;fill-rule:nonzero;stroke:none"
         id="path14" />
      <path
         d="m 1308.91,3144.48 h -202.54 l 722.35,709.24 h 202.46 l -722.27,-709.24"
         style="fill:#231f20;fill-opacity:1;fill-rule:nonzero;stroke:none"
         id="path16" />
      <path
         d="m 1715.51,3144.48 h -202.54 l 722.33,709.24 h 202.46 l -722.25,-709.24"
         style="fill:#231f20;fill-opacity:1;fill-rule:nonzero;stroke:none"
         id="path18" />
      <path
         d="m 297.648,144.875 v 620.5 H 418.684 V 249.047 H 664.195 V 765.375 H 785.25 V 249.047 h 74.355 V 5.37891 H 748.059 V 144.875 Z m 943.302,634.469 c 96.77,0 176.15,-30.59 238.11,-91.508 61.98,-61.184 93.08,-138.961 93.08,-233.113 -0.78,-94.93 -31.9,-172.731 -93.61,-233.114 -61.7,-60.382 -140.81,-90.711 -237.58,-90.711 -97.31,0 -176.95,30.329 -238.67,90.711 -61.698,60.383 -92.553,138.184 -92.553,233.114 0,94.152 30.855,171.687 92.553,232.605 61.72,60.649 141.36,91.238 238.67,92.016 z m 0,-538.739 c 60.11,0 109.68,20.036 148.44,60.118 38.77,39.832 58.03,91.238 58.03,154 0,62.496 -19.26,114.191 -58.03,154.535 -38.76,40.344 -88.33,60.387 -148.44,60.387 -60.92,0 -110.51,-20.043 -149.27,-60.387 -38.77,-40.344 -58.01,-92.039 -57.23,-154.535 0,-62.762 19.26,-114.168 57.76,-154 38.23,-40.082 87.82,-60.118 148.74,-60.118 z m 502.35,524.77 h 418.49 V 249.047 h 65.13 V 5.37891 H 2115.38 V 144.875 H 1734.06 V 5.37891 H 1622.24 V 249.047 c 18.73,-1.332 36.92,5.531 55.12,20.039 17.93,14.504 32.44,35.855 43.52,63.805 7.64,19.257 13.18,41.941 16.89,68.312 3.68,26.371 5.53,57.742 5.53,94.399 z M 1860.38,661.199 V 495.602 c 0,-40.344 -1.84,-74.356 -5.54,-102.309 -3.68,-27.969 -8.97,-51.426 -15.81,-70.688 -5.56,-15.019 -12.13,-28.48 -20.31,-40.347 -8.17,-12.129 -17.42,-23.192 -27.97,-33.211 h 250.27 v 412.152 z m 506.32,104.176 h 418.49 V 249.047 h 65.14 V 5.37891 H 2738.78 V 144.875 H 2357.46 V 5.37891 H 2245.65 V 249.047 c 18.73,-1.332 36.92,5.531 55.12,20.039 17.93,14.504 32.43,35.855 43.52,63.805 7.64,19.257 13.17,41.941 16.88,68.312 3.69,26.371 5.53,57.742 5.53,94.399 z M 2483.79,661.199 V 495.602 c 0,-40.344 -1.85,-74.356 -5.54,-102.309 -3.69,-27.969 -8.97,-51.426 -15.82,-70.688 -5.55,-15.019 -12.13,-28.48 -20.3,-40.347 -8.18,-12.129 -17.42,-23.192 -27.97,-33.211 h 250.27 v 412.152 h -180.64"
         style="fill:#231f20;fill-opacity:1;fill-rule:nonzero;stroke:none"
         id="path20" />
    </g>
  </g>
</svg>
